<svg xmlns="http://www.w3.org/2000/svg" viewBox="0 0 512 512">
  <!-- Background -->
  <rect width="512" height="512" rx="96" fill="#1a1814"/>

  <g fill="#f5f0e8">
    <!-- Barbell plates -->
    <rect x="34"  y="66" width="58" height="90" rx="16" transform="rotate(-10 63 111)"/>
    <rect x="420" y="66" width="58" height="90" rx="16" transform="rotate(10 449 111)"/>

    <!-- Bar -->
    <path d="M 88 118 Q 256 96 424 118 L 424 132 Q 256 110 88 132 Z"/>

    <!-- Left arm raised to bar -->
    <path d="M 224 196 L 108 112 Q 94 96 106 82 Q 119 68 134 82 L 246 210 Z"/>
    <!-- Right arm raised to bar -->
    <path d="M 288 196 L 404 112 Q 418 96 406 82 Q 393 68 378 82 L 266 210 Z"/>

    <!-- Head -->
    <circle cx="256" cy="150" r="42"/>

    <!-- Torso + wide-stance legs (one unified shape) -->
    <path d="
      M 222 208
      L 256 232
      L 290 208
      L 292 238
      Q 330 300 362 382
      Q 368 402 350 410
      Q 332 416 320 398
      Q 292 332 256 274
      Q 220 332 192 398
      Q 180 416 162 410
      Q 144 402 150 382
      Q 182 300 220 238
      Z
    "/>
  </g>
</svg>
