<svg xmlns="http://www.w3.org/2000/svg" viewBox="0 0 512 512">
  <!-- Background -->
  <rect width="512" height="512" rx="96" fill="#1a1814"/>

  <g fill="#f5f0e8">
    <!-- Head -->
    <circle cx="256" cy="148" r="46"/>

    <!-- Left arm raised -->
    <path d="M 236 188 L 152 108 Q 138 92 150 78 Q 163 64 178 78 L 252 210 Z"/>

    <!-- Right arm raised -->
    <path d="M 276 188 L 360 108 Q 374 92 362 78 Q 349 64 334 78 L 260 210 Z"/>

    <!-- Torso + crossed legs (one unified shape) -->
    <path d="
      M 210 220
      Q 200 224 168 252
      Q 130 284 110 296
      Q 88 310 96 330
      Q 104 348 132 342
      Q 168 334 210 310
      L 256 300
      L 302 310
      Q 344 334 380 342
      Q 408 348 416 330
      Q 424 310 402 296
      Q 382 284 344 252
      Q 312 224 302 220
      Q 280 212 256 212
      Q 232 212 210 220
      Z
    "/>

    <!-- Mat -->
    <path d="
      M 96 348
      Q 80 356 80 368
      Q 80 382 100 388
      L 412 388
      Q 432 382 432 368
      Q 432 356 416 348
      Z
    "/>

    <!-- Arrow left (cut out from mat — dark) -->
    <polygon points="112,368 138,354 138,382" fill="#1a1814"/>
    <rect x="138" y="361" width="68" height="14" rx="4" fill="#1a1814"/>

    <!-- Arrow right (cut out from mat — dark) -->
    <polygon points="400,368 374,354 374,382" fill="#1a1814"/>
    <rect x="306" y="361" width="68" height="14" rx="4" fill="#1a1814"/>
  </g>
</svg>
